<?xml version="1.0" encoding="UTF-8" standalone="no"?>
<!DOCTYPE svg PUBLIC "-//W3C//DTD SVG 1.1//EN" "http://www.w3.org/Graphics/SVG/1.1/DTD/svg11.dtd">
<svg xmlns="http://www.w3.org/2000/svg" version="1.1" viewBox="0 0 512 512">
  <path fill="#ffffff" d="
  M 84.06 461.81
  Q 80.75 465.10 78.17 467.20
  C 70.22 473.67 58.24 473.30 50.50 467.76
  C 40.81 460.83 37.12 448.56 42.39 437.64
  Q 44.17 433.95 49.31 428.82
  Q 135.56 342.57 221.56 256.56
  A 0.64 0.64 0.0 0 0 221.56 255.66
  Q 135.30 169.51 49.28 83.33
  Q 44.13 78.17 42.24 74.39
  C 30.17 50.15 61.79 27.77 81.53 47.47
  Q 168.16 133.97 255.35 221.25
  A 1.09 1.08 -44.8 0 0 256.88 221.25
  Q 344.63 133.50 432.80 45.31
  Q 435.24 42.87 439.70 41.34
  C 464.55 32.81 483.41 62.66 464.54 81.54
  Q 377.51 168.57 290.54 255.65
  A 0.50 0.50 0.0 0 0 290.54 256.36
  Q 376.63 342.52 462.67 428.58
  C 488.73 454.64 453.31 487.81 429.54 463.96
  Q 343.04 377.21 256.39 290.49
  A 0.61 0.60 -44.7 0 0 255.54 290.49
  Q 169.75 376.63 84.06 461.81
  Z" />
</svg>