<svg width="26" height="26" viewBox="0 0 26 26" fill="none" xmlns="http://www.w3.org/2000/svg">
<path d="M13 0C5.85 0 0 5.85 0 13C0 20.15 5.85 26 13 26C20.15 26 26 20.15 26 13C26 5.85 20.15 0 13 0ZM8.359 16.172L6.591 15.379C6.955 14.651 7.15 13.871 7.15 13.065C7.15 12.207 6.955 11.388 6.591 10.621L8.359 9.828C8.853 10.881 9.1 11.96 9.1 13.065C9.1 14.04 8.853 15.08 8.359 16.172ZM12.389 18.122L10.686 17.277C11.375 15.808 11.7 14.3 11.7 12.818C11.7 11.349 11.375 9.997 10.686 8.723L12.389 7.748C13.247 9.256 13.65 10.946 13.65 12.818C13.65 14.729 13.247 16.497 12.389 18.122ZM16.484 19.955L14.703 19.045C15.73 17.043 16.25 15.041 16.25 13C16.25 10.959 15.73 8.931 14.703 6.903L16.484 6.045C17.615 8.359 18.2 10.686 18.2 13C18.2 15.366 17.615 17.68 16.484 19.955Z" fill="black"/>
</svg>
