<svg width="22" height="26" viewBox="0 0 22 26" fill="inherit" xmlns="http://www.w3.org/2000/svg">
   <path
      d="M21.8701 18.947C21.2721 20.271 20.9861 20.863 20.2181 22.033C19.1451 23.667 17.6301 25.706 15.7571 25.72C14.0911 25.734 13.6611 24.633 11.4001 24.651C9.13914 24.662 8.66814 25.74 7.00014 25.723C5.12714 25.706 3.69314 23.869 2.61914 22.238C-0.383856 17.663 -0.700856 12.301 1.15514 9.44798C2.46814 7.42498 4.54614 6.23698 6.49714 6.23698C8.48414 6.23698 9.73314 7.32898 11.3761 7.32898C12.9701 7.32898 13.9411 6.23398 16.2391 6.23398C17.9771 6.23398 19.8151 7.18098 21.1281 8.81498C16.8321 11.169 17.5301 17.305 21.8701 18.947ZM14.4951 4.40798C15.3311 3.33498 15.9651 1.82098 15.7351 0.276978C14.3711 0.369978 12.7761 1.24098 11.8441 2.36898C11.0001 3.39598 10.3001 4.92198 10.5731 6.39798C12.0611 6.44598 13.6011 5.55898 14.4951 4.40798Z"
      fill="white" />
</svg>