<svg width="34" height="26" viewBox="0 0 34 26" fill="none" xmlns="http://www.w3.org/2000/svg">
<path d="M7.32378 0.462013C7.18218 0.317536 7.0135 0.202377 6.82738 0.123115C6.64125 0.0438533 6.44134 0.00204269 6.23905 7.29978e-05C6.03676 -0.0018967 5.83607 0.0360126 5.64844 0.111635C5.4608 0.187258 5.28991 0.299112 5.14553 0.440804C3.51226 2.06459 2.21668 3.9957 1.33354 6.12274C0.4504 8.24978 -0.00282509 10.5306 1.32492e-05 12.8337C-0.00263577 15.2252 0.486258 17.5917 1.43635 19.7863C2.38644 21.9809 3.77746 23.9569 5.52306 25.5915C5.81686 25.863 6.20494 26.0094 6.60492 25.9995C7.00489 25.9896 7.38526 25.8242 7.66526 25.5384C8.33549 24.8682 8.25277 23.8013 7.60799 23.1841C6.20708 21.8491 5.09227 20.243 4.33132 18.4637C3.57037 16.6844 3.17917 14.7689 3.18149 12.8337C3.18149 8.91839 4.75314 5.36786 7.30257 2.78449C7.91766 2.1588 7.98129 1.11952 7.32378 0.462013ZM11.0588 4.20131C10.7795 3.91389 10.3976 3.74893 9.99687 3.74256C9.59612 3.7362 9.2092 3.88897 8.92088 4.16738C7.77332 5.29989 6.86244 6.64931 6.24124 8.13712C5.62005 9.62494 5.30094 11.2214 5.30248 12.8337C5.29999 14.5385 5.65617 16.2247 6.3479 17.7828C7.03962 19.3409 8.0514 20.7361 9.31751 21.8776C9.60861 22.1348 9.98751 22.2701 10.3757 22.2555C10.7638 22.2409 11.1315 22.0775 11.4024 21.7991C12.0981 21.1035 11.9687 20.009 11.3155 19.3939C10.42 18.5522 9.70672 17.5357 9.2197 16.4073C8.73267 15.279 8.48227 14.0627 8.48396 12.8337C8.48396 10.3946 9.45325 8.18028 11.0291 6.55561C11.6357 5.93204 11.7354 4.87579 11.0588 4.20131ZM22.877 4.20131C23.1563 3.91389 23.5382 3.74893 23.9389 3.74256C24.3397 3.7362 24.7266 3.88897 25.0149 4.16738C26.1625 5.29989 27.0734 6.64931 27.6946 8.13712C28.3158 9.62494 28.6349 11.2214 28.6333 12.8337C28.6358 14.5385 28.2796 16.2247 27.5879 17.7828C26.8962 19.3409 25.8844 20.7361 24.6183 21.8776C24.3272 22.1348 23.9483 22.2701 23.5601 22.2555C23.172 22.2409 22.8043 22.0775 22.5334 21.7991C21.8377 21.1035 21.9671 20.009 22.6203 19.3939C23.5158 18.5522 24.2291 17.5357 24.7161 16.4073C25.2031 15.279 25.4535 14.0627 25.4519 12.8337C25.4519 10.3946 24.4826 8.18028 22.9067 6.55561C22.3001 5.93204 22.2004 4.87579 22.877 4.20131ZM26.612 0.464135C26.7536 0.319658 26.9223 0.204498 27.1084 0.125236C27.2946 0.0459742 27.4945 0.00416403 27.6968 0.00219434C27.899 0.00022464 28.0997 0.0381335 28.2874 0.113756C28.475 0.189379 28.6459 0.301232 28.7903 0.442925C30.4233 2.06646 31.7187 3.99723 32.6019 6.12388C33.485 8.25054 33.9384 10.531 33.9358 12.8337C33.9384 15.2252 33.4496 17.5917 32.4995 19.7863C31.5494 21.9809 30.1584 23.9569 28.4127 25.5915C28.1189 25.863 27.7309 26.0094 27.3309 25.9995C26.9309 25.9896 26.5506 25.8242 26.2706 25.5384C25.6003 24.8682 25.683 23.8013 26.3299 23.1841C27.7305 21.8489 28.8449 20.2428 29.6055 18.4635C30.3661 16.6842 30.7569 14.7688 30.7543 12.8337C30.7543 8.91839 29.1827 5.36786 26.6332 2.78449C26.0182 2.1588 25.9545 1.11952 26.612 0.462013V0.464135ZM16.9679 9.65225C16.1241 9.65225 15.3149 9.98744 14.7183 10.5841C14.1216 11.1807 13.7864 11.9899 13.7864 12.8337C13.7864 13.6775 14.1216 14.4867 14.7183 15.0834C15.3149 15.68 16.1241 16.0152 16.9679 16.0152C17.8117 16.0152 18.6209 15.68 19.2176 15.0834C19.8142 14.4867 20.1494 13.6775 20.1494 12.8337C20.1494 11.9899 19.8142 11.1807 19.2176 10.5841C18.6209 9.98744 17.8117 9.65225 16.9679 9.65225Z" fill="white"/>
</svg>
