<svg width="267" height="267" viewBox="0 0 267 267" fill="none" xmlns="http://www.w3.org/2000/svg">
<g clip-path="url(#clip0_23_101)">
<path d="M133.5 0C168.906 0 202.863 14.0651 227.899 39.1012C252.935 64.1374 267 98.0936 267 133.5C267 168.906 252.935 202.863 227.899 227.899C202.863 252.935 168.906 267 133.5 267C98.0936 267 64.1374 252.935 39.1012 227.899C14.0651 202.863 0 168.906 0 133.5C0 98.0936 14.0651 64.1374 39.1012 39.1012C64.1374 14.0651 98.0936 0 133.5 0ZM25.0312 133.5C25.0312 162.268 36.4592 189.857 56.801 210.199C77.1429 230.541 104.732 241.969 133.5 241.969C162.268 241.969 189.857 230.541 210.199 210.199C230.541 189.857 241.969 162.268 241.969 133.5C241.969 104.732 230.541 77.1429 210.199 56.801C189.857 36.4592 162.268 25.0312 133.5 25.0312C104.732 25.0312 77.1429 36.4592 56.801 56.801C36.4592 77.1429 25.0312 104.732 25.0312 133.5ZM106.45 87.2256L177.605 129.929C178.22 130.3 178.729 130.824 179.082 131.45C179.435 132.075 179.62 132.782 179.62 133.5C179.62 134.218 179.435 134.925 179.082 135.55C178.729 136.176 178.22 136.7 177.605 137.071L106.45 179.774C105.817 180.156 105.094 180.362 104.356 180.372C103.617 180.383 102.889 180.197 102.246 179.834C101.602 179.47 101.067 178.943 100.695 178.305C100.322 177.667 100.125 176.942 100.125 176.203V90.8134C100.122 90.0733 100.317 89.3458 100.688 88.7057C101.06 88.0655 101.595 87.5356 102.238 87.1705C102.882 86.8053 103.611 86.6179 104.351 86.6276C105.091 86.6373 105.816 86.8437 106.45 87.2256Z" fill="white"/>
</g>
<defs>
<clipPath id="clip0_23_101">
<rect width="267" height="267" fill="white"/>
</clipPath>
</defs>
</svg>
