<svg width="34" height="14" viewBox="0 0 34 14" fill="none" xmlns="http://www.w3.org/2000/svg">
<path d="M15.9139 1.74812V14H29.1152C31.9031 13.8041 33.1539 12.0861 33.1539 9.97632C33.1539 7.74596 31.4661 5.95264 29.2056 5.95264C28.6329 5.95264 28.1507 6.0732 27.6534 6.28418C27.2917 2.7578 24.2928 0 20.6006 0C18.8375 0 17.1647 0.663078 15.9139 1.74812ZM14.5877 3.28525C14.1356 3.01399 13.6534 2.80301 13.1259 2.69752V14H15.2207V2.4564C14.9946 2.69752 14.7836 2.99892 14.5877 3.28525ZM11.0463 2.47148V14H12.4327V2.51668C12.1464 2.47147 11.8601 2.4564 11.5587 2.4564C11.3778 2.4564 11.2121 2.45641 11.0463 2.47148ZM8.28848 3.45102V14H9.65985V2.7578C9.16254 2.92357 8.69537 3.16469 8.28848 3.45102ZM5.7718 7.21851C5.68138 7.21851 5.59096 7.12809 5.48547 7.08288V14H6.87191V4.74704C6.31432 5.4704 5.93757 6.32939 5.7718 7.21851ZM2.69752 6.79656V13.8644C3.01399 13.9548 3.37567 14 3.76749 14H4.09903V6.676C3.97847 6.66093 3.85791 6.64586 3.76749 6.64586C3.37567 6.64586 3.01399 6.70614 2.69752 6.79656ZM0 10.3229C0 11.4532 0.512379 12.4478 1.31109 13.1259V7.53498C0.512379 8.19806 0 9.20775 0 10.3229Z" fill="white"/>
</svg>
