<svg width="25" height="24" viewBox="0 0 25 24" fill="none" xmlns="http://www.w3.org/2000/svg">
<mask id="mask0_18_53" style="mask-type:luminance" maskUnits="userSpaceOnUse" x="0" y="0" width="25" height="24">
<path d="M0.654297 0H24.6543V24H0.654297V0Z" fill="white"/>
</mask>
<g mask="url(#mask0_18_53)">
<path d="M12.6493 0C6.0353 0 0.654297 5.382 0.654297 11.996C0.654297 18.616 6.0353 24 12.6493 24C19.2693 24 24.6543 18.615 24.6543 11.996C24.6543 5.382 19.2693 0 12.6493 0ZM6.5623 16.404C7.93572 15.9833 9.36388 15.7683 10.8003 15.766C13.2143 15.766 15.5973 16.378 17.6923 17.536C17.8173 17.604 17.9303 17.828 17.9823 18.108C18.0323 18.388 18.0123 18.675 17.9303 18.824C17.8917 18.8949 17.8393 18.9574 17.7764 19.0079C17.7134 19.0584 17.641 19.0959 17.5634 19.1182C17.4858 19.1405 17.4046 19.1472 17.3244 19.1379C17.2442 19.1286 17.1667 19.1035 17.0963 19.064C15.5575 18.2198 13.8648 17.6933 12.1187 17.5157C10.3726 17.3381 8.60856 17.513 6.9313 18.03C6.8543 18.0549 6.77312 18.0642 6.69248 18.0574C6.61184 18.0507 6.53336 18.0279 6.4616 17.9905C6.38985 17.9531 6.32625 17.9017 6.27452 17.8395C6.22279 17.7773 6.18397 17.7054 6.1603 17.628C6.0533 17.278 6.2743 16.498 6.5623 16.404ZM6.0393 11.984C7.59084 11.5625 9.19151 11.349 10.7993 11.349C13.6933 11.349 16.5663 12.049 19.1093 13.375C19.2883 13.465 19.4193 13.619 19.4793 13.807C19.5096 13.9019 19.5207 14.002 19.5117 14.1013C19.5028 14.2005 19.4741 14.297 19.4273 14.385C19.2003 14.829 18.9343 15.128 18.7673 15.128C18.6455 15.1275 18.5255 15.098 18.4173 15.042C16.0665 13.8147 13.4522 13.1784 10.8003 13.188C9.32523 13.185 7.85655 13.3818 6.4343 13.773C6.33942 13.7989 6.24036 13.8059 6.14277 13.7936C6.04519 13.7812 5.95099 13.7498 5.86556 13.701C5.78013 13.6523 5.70514 13.5872 5.64487 13.5095C5.5846 13.4317 5.54023 13.3429 5.5143 13.248C5.4023 12.826 5.6593 12.088 6.0393 11.984ZM5.9043 9.098C5.79174 9.12689 5.67458 9.1332 5.55957 9.11656C5.44456 9.09993 5.33399 9.06068 5.23423 9.00109C5.13447 8.94149 5.0475 8.86273 4.97834 8.76934C4.90919 8.67596 4.85921 8.5698 4.8313 8.457C4.7083 7.959 5.0193 7.381 5.4713 7.267C7.2148 6.83757 9.00368 6.61966 10.7993 6.618C14.2493 6.618 17.5553 7.394 20.6233 8.925C20.8341 9.02982 20.9946 9.21405 21.0696 9.43719C21.1447 9.66034 21.128 9.90414 21.0233 10.115C20.8803 10.403 20.5703 10.713 20.2283 10.713C20.0942 10.7125 19.9618 10.6828 19.8403 10.626C17.0349 9.21863 13.9379 8.49038 10.7993 8.5C9.1643 8.5 7.5173 8.701 5.9043 9.098Z" fill="white"/>
</g>
</svg>
