<svg width="25" height="20" viewBox="0 0 25 20" fill="none" xmlns="http://www.w3.org/2000/svg">
<path d="M24.6543 2.55975C23.7558 2.95724 22.803 3.21836 21.8274 3.33448C22.8553 2.71886 23.6244 1.75057 23.9914 0.609985C23.026 1.18455 21.9675 1.58722 20.8654 1.80504C20.1244 1.01216 19.1422 0.486316 18.0714 0.309261C17.0007 0.132206 15.9015 0.31386 14.9446 0.825982C13.9878 1.3381 13.227 2.152 12.7804 3.14114C12.3339 4.13028 12.2266 5.23924 12.4753 6.29562C10.5173 6.19765 8.60167 5.68894 6.85297 4.80252C5.10427 3.91611 3.56156 2.6718 2.32502 1.15041C1.88737 1.90212 1.65738 2.75664 1.65861 3.62647C1.65861 5.33369 2.52871 6.84193 3.84857 7.72498C3.06679 7.70032 2.30223 7.4892 1.61858 7.1092V7.16925C1.61855 8.30646 2.01187 9.40868 2.73185 10.289C3.45182 11.1692 4.45412 11.7734 5.56874 11.9989C4.84304 12.1958 4.08204 12.2248 3.34346 12.0837C3.65774 13.0626 4.27033 13.9186 5.09542 14.532C5.92052 15.1453 6.9168 15.4852 7.94472 15.504C6.92316 16.3064 5.75346 16.8994 4.5025 17.2494C3.25155 17.5993 1.94388 17.6991 0.654297 17.5433C2.90515 18.9907 5.5253 19.7592 8.20139 19.7568C17.2603 19.7568 22.2124 12.2532 22.2124 5.74578C22.2124 5.53385 22.2077 5.31956 22.1983 5.10881C23.1618 4.41221 23.9935 3.54825 24.6543 2.55975Z" fill="white"/>
</svg>
