<svg width="25" height="18" viewBox="0 0 25 18" fill="none" xmlns="http://www.w3.org/2000/svg">
<path d="M10.2543 12.6L16.4823 8.99998L10.2543 5.39998V12.6ZM24.1263 3.20398C24.2823 3.76798 24.3903 4.52397 24.4623 5.48397C24.5463 6.44397 24.5823 7.27198 24.5823 7.99197L24.6543 8.99998C24.6543 11.628 24.4623 13.56 24.1263 14.796C23.8263 15.876 23.1303 16.572 22.0503 16.872C21.4863 17.028 20.4543 17.136 18.8703 17.208C17.3103 17.292 15.8823 17.328 14.5623 17.328L12.6543 17.4C7.6263 17.4 4.4943 17.208 3.2583 16.872C2.1783 16.572 1.4823 15.876 1.1823 14.796C1.0263 14.232 0.918297 13.476 0.846297 12.516C0.762297 11.556 0.726297 10.728 0.726297 10.008L0.654297 8.99998C0.654297 6.37197 0.846297 4.43998 1.1823 3.20398C1.4823 2.12398 2.1783 1.42798 3.2583 1.12798C3.8223 0.971976 4.8543 0.863975 6.4383 0.791975C7.9983 0.707975 9.4263 0.671976 10.7463 0.671976L12.6543 0.599976C17.6823 0.599976 20.8143 0.791976 22.0503 1.12798C23.1303 1.42798 23.8263 2.12398 24.1263 3.20398Z" fill="white"/>
</svg>
